<svg version="1.1" xmlns="http://www.w3.org/2000/svg" xmlns:xlink="http://www.w3.org/1999/xlink" width="50" height="55.5" viewBox="0,0,50,55.5"><g transform="translate(-215,-155)"><g data-paper-data="{&quot;isPaintingLayer&quot;:true}" fill-rule="nonzero" stroke-linecap="butt" stroke-linejoin="miter" stroke-miterlimit="10" stroke-dasharray="" stroke-dashoffset="0" style="mix-blend-mode: normal"><path d="M217.5,185.5c0,-12.42641 10.07359,-22.5 22.5,-22.5c12.42641,0 22.5,10.07359 22.5,22.5c0,12.42641 -10.07359,22.5 -22.5,22.5c-12.42641,0 -22.5,-10.07359 -22.5,-22.5z" fill="#4f3418" stroke="#6f452a" stroke-width="5"/><path d="M217.5,180c0,-12.42641 10.07359,-22.5 22.5,-22.5c12.42641,0 22.5,10.07359 22.5,22.5c0,12.42641 -10.07359,22.5 -22.5,22.5c-12.42641,0 -22.5,-10.07359 -22.5,-22.5z" fill="#518abe" stroke="#497197" stroke-width="5"/><path d="M236.65998,174.70224c-1.94504,2.68282 -5.40668,3.49113 -7.73178,1.80543c-2.32511,-1.6857 -2.63321,-5.22708 -0.68817,-7.9099c1.94504,-2.68282 5.40667,-3.49113 7.73178,-1.80543c2.32511,1.6857 2.63321,5.22708 0.68817,7.9099z" fill-opacity="0.40392" fill="#ffffff" stroke="none" stroke-width="0"/></g></g></svg>