<svg version="1.1" xmlns="http://www.w3.org/2000/svg" xmlns:xlink="http://www.w3.org/1999/xlink" width="189.17145" height="8.15207" viewBox="0,0,189.17145,8.15207"><g transform="translate(-44.60917,-175.90208)"><g data-paper-data="{&quot;isPaintingLayer&quot;:true}" fill-rule="nonzero" stroke-linecap="round" stroke-linejoin="miter" stroke-miterlimit="10" stroke-dasharray="" stroke-dashoffset="0" style="mix-blend-mode: normal"><path d="M233.52859,178.38034l-0.02935,3.1532l-1.1874,0.07983l-0.04892,-3.41268z" fill="#4e80ff" stroke="#4170e8" stroke-width="0.5"/><path d="M113.08354,176.94481l116.73012,1.25588v3.41268l-115.73853,1.0189" fill="#d2b26f" stroke="#000000" stroke-width="0"/><path d="M113.08354,179.94481l116.73012,0.33581v0.91253l-115.73853,0.27245" fill="#f5d899" stroke="#000000" stroke-width="0"/><path d="M44.60917,181.32892l0.12395,-3.08071l3.47055,-1.65885l3.59526,-0.44492l87.67799,1.08474l-9.46873,0.66356l19.65538,2.01432l-20.39908,2.0143l10.08848,0.47396l-87.67875,1.30337l-4.09028,-0.59243z" fill="#18181f" stroke="none" stroke-width="0"/><path d="M171.01638,177.62272l56.44225,0.57799v3.53116l-56.44225,0.34101z" fill="#a36e31" stroke="none" stroke-width="0"/><path d="M232.61513,178.20071l-0.12395,3.41268l-5.20603,0.18961l-0.07439,-3.60228z" fill="#ecdedb" stroke="none" stroke-width="0"/><path d="M171.14033,177.59243v4.44744h-1.85922v-4.44744z" fill="#020100" stroke="none" stroke-width="0"/><path d="M44.73312,178.24821l3.47055,-1.65885l3.59526,-0.44492l87.67799,1.08474l-9.46873,0.66356z" fill="#000000" stroke="none" stroke-width="0"/><path d="M44.60917,181.32892l105.0544,-1.42186l-20.39908,2.0143l-81.68055,1.1849z" fill="#46474e" stroke="none" stroke-width="0"/><path d="M47.83181,183.22472l0.12395,-6.84868l4.10936,-0.47396l-0.14302,8.15207z" fill="#efeae1" stroke="#000000" stroke-width="0"/><path d="M232.2818,179.78405l-0.11439,1.20216l-4.80465,0.0668l-0.06866,-1.26896z" fill="#ffffff" stroke="none" stroke-width="0"/><path d="M171.01638,177.62272l56.19225,0.55415v1.26573l-56.19225,-0.11972z" fill="#875318" stroke="none" stroke-width="0"/></g></g></svg>