<svg version="1.1" xmlns="http://www.w3.org/2000/svg" xmlns:xlink="http://www.w3.org/1999/xlink" width="452.00076" height="248.5" viewBox="0,0,452.00076,248.5"><defs><radialGradient cx="391.94174" cy="294.13237" r="2.08333" gradientUnits="userSpaceOnUse" id="color-1"><stop offset="0" stop-color="#feeede"/><stop offset="1" stop-color="#f7e6d2"/></radialGradient><radialGradient cx="341.60841" cy="294.13237" r="2.08333" gradientUnits="userSpaceOnUse" id="color-2"><stop offset="0" stop-color="#feeede"/><stop offset="1" stop-color="#f7e6d2"/></radialGradient><radialGradient cx="291.27508" cy="294.13237" r="2.08333" gradientUnits="userSpaceOnUse" id="color-3"><stop offset="0" stop-color="#feeede"/><stop offset="1" stop-color="#f7e6d2"/></radialGradient><radialGradient cx="86.4973" cy="293.13237" r="2.08333" gradientUnits="userSpaceOnUse" id="color-4"><stop offset="0" stop-color="#feeede"/><stop offset="1" stop-color="#f7e6d2"/></radialGradient><radialGradient cx="136.83063" cy="293.13237" r="2.08333" gradientUnits="userSpaceOnUse" id="color-5"><stop offset="0" stop-color="#feeede"/><stop offset="1" stop-color="#f7e6d2"/></radialGradient><radialGradient cx="187.16396" cy="293.13237" r="2.08333" gradientUnits="userSpaceOnUse" id="color-6"><stop offset="0" stop-color="#feeede"/><stop offset="1" stop-color="#f7e6d2"/></radialGradient><radialGradient cx="455.7335" cy="129.57887" r="2.03799" gradientUnits="userSpaceOnUse" id="color-7"><stop offset="0" stop-color="#feeede"/><stop offset="1" stop-color="#f7e6d2"/></radialGradient><radialGradient cx="455.7335" cy="230.72123" r="2.03799" gradientUnits="userSpaceOnUse" id="color-8"><stop offset="0" stop-color="#feeede"/><stop offset="1" stop-color="#f7e6d2"/></radialGradient><radialGradient cx="88.41667" cy="65.22763" r="2.08333" gradientUnits="userSpaceOnUse" id="color-9"><stop offset="0" stop-color="#feeede"/><stop offset="1" stop-color="#f7e6d2"/></radialGradient><radialGradient cx="138.75" cy="65.22763" r="2.08333" gradientUnits="userSpaceOnUse" id="color-10"><stop offset="0" stop-color="#feeede"/><stop offset="1" stop-color="#f7e6d2"/></radialGradient><radialGradient cx="189.08333" cy="65.22763" r="2.08333" gradientUnits="userSpaceOnUse" id="color-11"><stop offset="0" stop-color="#feeede"/><stop offset="1" stop-color="#f7e6d2"/></radialGradient><radialGradient cx="393.86111" cy="66.22763" r="2.08333" gradientUnits="userSpaceOnUse" id="color-12"><stop offset="0" stop-color="#feeede"/><stop offset="1" stop-color="#f7e6d2"/></radialGradient><radialGradient cx="343.52778" cy="66.22763" r="2.08333" gradientUnits="userSpaceOnUse" id="color-13"><stop offset="0" stop-color="#feeede"/><stop offset="1" stop-color="#f7e6d2"/></radialGradient><radialGradient cx="293.19445" cy="66.22763" r="2.08333" gradientUnits="userSpaceOnUse" id="color-14"><stop offset="0" stop-color="#feeede"/><stop offset="1" stop-color="#f7e6d2"/></radialGradient><radialGradient cx="24.62491" cy="229.78113" r="2.03799" gradientUnits="userSpaceOnUse" id="color-15"><stop offset="0" stop-color="#feeede"/><stop offset="1" stop-color="#f7e6d2"/></radialGradient><radialGradient cx="24.62491" cy="128.63877" r="2.03799" gradientUnits="userSpaceOnUse" id="color-16"><stop offset="0" stop-color="#feeede"/><stop offset="1" stop-color="#f7e6d2"/></radialGradient><radialGradient cx="455.6084" cy="179.63238" r="2.08333" gradientUnits="userSpaceOnUse" id="color-17"><stop offset="0" stop-color="#feeede"/><stop offset="1" stop-color="#f7e6d2"/></radialGradient></defs><g transform="translate(-13.99458,-55.41693)"><g data-paper-data="{&quot;isPaintingLayer&quot;:true}" fill-rule="nonzero" stroke-linejoin="miter" stroke-miterlimit="10" stroke-dasharray="" stroke-dashoffset="0" style="mix-blend-mode: normal"><path d="M465.0265,262.10448v31.26806l-11.16667,9.79444h-29.38889c0,0 0,-8.04711 0,-10.75203c0,-1.63935 0,-4.94936 0,-4.94936l7.05796,-0.42117c0,0 10.84496,18.77709 22.68281,7.40444c11.19107,-10.7513 -4.34361,-22.71862 -4.34361,-22.71862l-0.04995,-9.62575z" fill="#515350" stroke="none" stroke-width="0" stroke-linecap="butt"/><path d="M449.31816,97.71706l0.04995,-9.62575c0,0 15.53468,-11.96733 4.3436,-22.71862c-11.83785,-11.37265 -23.89752,7.07111 -23.89752,7.07111l-5.84325,-0.08784v-15.70139h28.38889l12.16667,10.54444v30.51806z" data-paper-data="{&quot;index&quot;:null}" fill="#515350" stroke="none" stroke-width="0" stroke-linecap="butt"/><path d="M449.27508,270.44302l-5,-4.5187l-0.5,-171.71053l5.5,-5.02078" fill="#55865d" stroke="#286a31" stroke-width="1" stroke-linecap="round"/><path d="M250.71952,288.02639l0.99939,-6h176.39195l3.99755,5.4" fill="#55865d" stroke="#286a31" stroke-width="1" stroke-linecap="round"/><path d="M47.10842,287.75972l5.65641,-6.4h175.39609l1.00306,6" fill="#55865d" stroke="#286a31" stroke-width="1" stroke-linecap="round"/><path d="M449.97081,265.84343c0,0 6.30658,5.76051 8.28571,10.14286c1.97913,4.38235 3.13448,7.26604 1.71429,12c-1.42019,4.73396 -3.58865,7.41844 -8.14286,9.42857c-4.55421,2.01014 -7.256,1.87866 -12.57143,-0.28571c-5.31543,-2.16437 -11.28571,-9.42857 -11.28571,-9.42857l4.57143,-0.28571c0,0 6.43488,5.19207 8.85714,6.14286c2.42226,0.95079 2.85151,1.64567 6.42857,-0.14286c3.57706,-1.78853 6.34784,-4.80243 7.57143,-6.85714c1.22359,-2.05471 1.69445,-1.621 0,-5.85714c-1.69445,-4.23614 -6.28571,-9.85714 -6.28571,-9.85714z" data-paper-data="{&quot;index&quot;:null}" fill="#2f312e" stroke="none" stroke-width="0" stroke-linecap="round"/><path d="M424.65168,287.40812v15.48183h-168.46972v-15.48183z" fill="#7b4237" stroke="#492a24" stroke-width="0.5" stroke-linecap="butt"/><path d="M393.94174,294.21572l-1.83333,2l-2.16667,-2l2,-2.16667z" fill="url(#color-1)" stroke="none" stroke-width="0" stroke-linecap="round"/><path d="M256.01023,287.41079v15.33019h-33.20635v-15.33019c0,0 2.03711,0 5.03922,0c3.07021,0 1.06016,10.13252 12.21699,10.90147c12.11619,0.83507 8.74015,-10.90147 10.931,-10.90147c2.35313,0 5.01913,0 5.01913,0z" fill="#514e57" stroke="none" stroke-width="0" stroke-linecap="butt"/><path d="M253.88324,287.70279c0,0 -3.00929,7.40874 -4.55096,8.90611c-2.90474,2.82127 -12.95183,6.43225 -19.8187,-0.292c-0.79727,-0.78071 -4.55096,-8.61411 -4.55096,-8.61411l4.55096,-0.438c0,0 0.37369,3.50198 1.61486,5.25606c1.24115,1.75409 2.10575,2.30419 3.96375,2.62803c1.85799,0.32385 6.75972,0.81836 10.27637,-0.146c1.67691,-0.45985 1.85448,-1.26326 2.7893,-2.77403c0.10547,-0.17046 1.90848,-4.81806 1.90848,-4.81806z" fill="#302e32" stroke="none" stroke-width="0" stroke-linecap="round"/><path d="M343.60841,294.2157l-1.83333,2l-2.16667,-2l2,-2.16666z" fill="url(#color-2)" stroke="none" stroke-width="0" stroke-linecap="round"/><path d="M293.27508,294.2157l-1.83333,2l-2.16667,-2l2,-2.16666z" fill="url(#color-3)" stroke="none" stroke-width="0" stroke-linecap="round"/><path d="M256.05841,287.11409v0.46667h-5.95555v-0.46667z" fill="#141815" stroke="none" stroke-width="0" stroke-linecap="butt"/><path d="M432.72507,287.22242v0.58333h-8v-0.58333z" data-paper-data="{&quot;index&quot;:null}" fill="#141815" stroke="none" stroke-width="0" stroke-linecap="butt"/><path d="M229.61396,287.2252v0.46667h-6.4v-0.46667z" fill="#141815" stroke="none" stroke-width="0" stroke-linecap="butt"/><path d="M31.91525,261.64294l-0.04872,8.12575c0,0 -16.40163,13.46733 -5.4865,24.21862c11.54596,11.37265 22.77373,-7.07111 22.77373,-7.07111l6.23371,0.08784v15.70139h-29.18889l-10.36667,-10.54444v-30.51806z" data-paper-data="{&quot;index&quot;:null}" fill="#515350" stroke="none" stroke-width="0" stroke-linecap="butt"/><path d="M31.54968,270.63191c0,0 -4.38627,5.621 -6.00506,9.85714c-1.6188,4.23614 -1.16896,3.80243 0,5.85714c1.16896,2.05471 3.81603,5.06861 7.23338,6.85714c3.41735,1.78853 3.82744,1.09365 6.14155,0.14286c2.31411,-0.95079 8.46169,-6.14286 8.46169,-6.14286l4.36733,0.28571c0,0 -5.70372,7.2642 -10.78182,9.42857c-5.07811,2.16437 -7.65927,2.29585 -12.01014,0.28571c-4.35088,-2.01013 -6.42251,-4.69461 -7.7793,-9.42857c-1.35678,-4.73396 -0.25301,-7.61765 1.63775,-12c1.89077,-4.38235 7.91577,-10.14286 7.91577,-10.14286z" data-paper-data="{&quot;index&quot;:null}" fill="#2f312e" stroke="none" stroke-width="0" stroke-linecap="round"/><path d="M55.38334,287.01088v0.58333h-9v-0.58333z" data-paper-data="{&quot;index&quot;:null}" fill="#141815" stroke="none" stroke-width="0" stroke-linecap="butt"/><path d="M223.03485,287.35257v15.48183h-167.80305v-15.48183z" fill="#7b4237" stroke="#492a24" stroke-width="0.5" stroke-linecap="butt"/><path d="M86.4973,291.04905l2,2.16667l-2.16667,2l-1.83333,-2z" fill="url(#color-4)" stroke="none" stroke-width="0" stroke-linecap="round"/><path d="M136.83063,291.04904l2,2.16666l-2.16667,2l-1.83333,-2z" fill="url(#color-5)" stroke="none" stroke-width="0" stroke-linecap="round"/><path d="M187.16396,291.04904l2,2.16666l-2.16667,2l-1.83333,-2z" fill="url(#color-6)" stroke="none" stroke-width="0" stroke-linecap="round"/><path d="M449.34258,97.58084h15.48183v164.80305h-15.48183z" fill="#7b4237" stroke="#492a24" stroke-width="0.5" stroke-linecap="butt"/><path d="M455.81685,127.6224l2,1.79343l-2,2.11951l-2.16667,-1.95647z" fill="url(#color-7)" stroke="none" stroke-width="0" stroke-linecap="round"/><path d="M455.81683,228.76476l2,1.79343l-2,2.11951l-2.16666,-1.95647z" fill="url(#color-8)" stroke="none" stroke-width="0" stroke-linecap="round"/><path d="M31.08333,88.66698l5,4.54363l0.5,172.65789l-5.5,5.04848" fill="#55865d" stroke="#286a31" stroke-width="1" stroke-linecap="round"/><path d="M229.63889,71.33361l-0.99939,6h-176.39195l-3.99755,-5.4" fill="#55865d" stroke="#286a31" stroke-width="1" stroke-linecap="round"/><path d="M432.70195,72.10028l-4.01225,5.9h-176.4922l-1.00306,-5.53125" fill="#55865d" stroke="#286a31" stroke-width="1" stroke-linecap="round"/><path d="M15.33191,97.25552v-30.51806l12.16667,-10.54444h28.38889c0,0 0,8.04711 0,10.75203c0,1.63935 0,4.94936 0,4.94936l-7.05796,0.42117c0,0 -10.84496,-18.77709 -22.68281,-7.40444c-11.19107,10.7513 5.09361,25.46862 5.09361,25.46862l0.04995,6.87575z" fill="#515350" stroke="none" stroke-width="0" stroke-linecap="butt"/><path d="M30.8876,93.76657c0,0 -6.30658,-5.8478 -8.28571,-10.29655c-1.97913,-4.44875 -3.13448,-7.37614 -1.71429,-12.18183c1.42019,-4.80569 3.58865,-7.53085 8.14286,-9.57144c4.55421,-2.0406 7.256,-1.90713 12.57143,0.29004c5.31543,2.19717 11.28571,9.57144 11.28571,9.57144l-4.57143,0.29004c0,0 -6.43488,-5.27074 -8.85714,-6.23594c-2.42226,-0.9652 -2.85151,-1.67061 -6.42857,0.14502c-3.57706,1.81563 -6.34784,4.8752 -7.57143,6.96104c-1.22359,2.08584 -1.69445,1.64556 0,5.94589c1.69445,4.30033 5.28571,9.7565 5.28571,9.7565z" data-paper-data="{&quot;index&quot;:null}" fill="#2f312e" stroke="none" stroke-width="0" stroke-linecap="round"/><path d="M55.70673,71.95189v-15.48183h168.46972v15.48183z" fill="#7b4237" stroke="#492a24" stroke-width="0.5" stroke-linecap="butt"/><path d="M86.41667,65.14428l1.83333,-2l2.16667,2l-2,2.16667z" fill="url(#color-9)" stroke="none" stroke-width="0" stroke-linecap="round"/><g stroke="none" stroke-width="0"><path d="M224.34818,71.94921v-15.33019h33.20635v15.33019c0,0 -2.03711,0 -5.03922,0c-3.07021,0 -1.06016,-10.13252 -12.21699,-10.90147c-12.11619,-0.83507 -8.74015,10.90147 -10.931,10.90147c-2.35313,0 -5.01913,0 -5.01913,0z" fill="#514e57" stroke-linecap="butt"/><path d="M226.47517,71.65721c0,0 3.00929,-7.40874 4.55096,-8.90611c2.90474,-2.82127 12.95183,-6.43225 19.8187,0.292c0.79727,0.78071 4.55096,8.61411 4.55096,8.61411l-4.55096,0.438c0,0 -0.37369,-3.50198 -1.61486,-5.25606c-1.24115,-1.75409 -2.10575,-2.30419 -3.96375,-2.62803c-1.85799,-0.32385 -6.75972,-0.81836 -10.27637,0.146c-1.67691,0.45985 -1.85448,1.26326 -2.7893,2.77403c-0.10547,0.17046 -1.90848,4.81806 -1.90848,4.81806z" fill="#302e32" stroke-linecap="round"/></g><path d="M136.75,65.1443l1.83333,-2l2.16667,2l-2,2.16666z" fill="url(#color-10)" stroke="none" stroke-width="0" stroke-linecap="round"/><path d="M187.08333,65.1443l1.83333,-2l2.16667,2l-2,2.16666z" fill="url(#color-11)" stroke="none" stroke-width="0" stroke-linecap="round"/><path d="M224.3,72.24592v-0.46667h5.95555v0.46667z" fill="#141815" stroke="none" stroke-width="0" stroke-linecap="butt"/><path d="M47.63334,72.13758v-0.58333h8v0.58333z" data-paper-data="{&quot;index&quot;:null}" fill="#141815" stroke="none" stroke-width="0" stroke-linecap="butt"/><path d="M250.74445,72.13481v-0.46667h6.4v0.46667z" fill="#141815" stroke="none" stroke-width="0" stroke-linecap="butt"/><path d="M449.12771,88.72809c0,0 4.48573,-5.621 6.14124,-9.85714c1.6555,-4.23614 1.19547,-3.80243 0,-5.85714c-1.19547,-2.05471 -3.90256,-5.06861 -7.3974,-6.85714c-3.49484,-1.78853 -3.91423,-1.09365 -6.28081,-0.14286c-2.36659,0.95079 -9.20161,6.14286 -9.20161,6.14286l-3.91831,-0.28571c0,0 5.83306,-7.2642 11.02631,-9.42857c5.19326,-2.16437 7.83295,-2.29585 12.28248,-0.28571c4.44953,2.01013 6.56815,4.69461 7.9557,9.42857c1.38755,4.73396 0.25875,7.61765 -1.67489,12c-1.93364,4.38235 -8.09527,10.14286 -8.09527,10.14286z" data-paper-data="{&quot;index&quot;:null}" fill="#2f312e" stroke="none" stroke-width="0" stroke-linecap="round"/><path d="M425.72507,72.34912v-0.58333h7.45195v0.58333z" data-paper-data="{&quot;index&quot;:null}" fill="#141815" stroke="none" stroke-width="0" stroke-linecap="butt"/><path d="M257.32356,72.00744v-15.48183h168.55305v15.48183z" fill="#7b4237" stroke="#492a24" stroke-width="0.5" stroke-linecap="butt"/><path d="M393.86111,68.31095l-2,-2.16667l2.16667,-2l1.83333,2z" fill="url(#color-12)" stroke="none" stroke-width="0" stroke-linecap="round"/><path d="M343.52778,68.31096l-2,-2.16666l2.16667,-2l1.83333,2z" fill="url(#color-13)" stroke="none" stroke-width="0" stroke-linecap="round"/><path d="M293.19445,68.31096l-2,-2.16666l2.16667,-2l1.83333,2z" fill="url(#color-14)" stroke="none" stroke-width="0" stroke-linecap="round"/><path d="M31.01583,261.77916h-15.48183v-164.80305h15.48183z" fill="#7b4237" stroke="#492a24" stroke-width="0.5" stroke-linecap="butt"/><path d="M24.54156,231.7376l-2,-1.79343l2,-2.11951l2.16667,1.95647z" fill="url(#color-15)" stroke="none" stroke-width="0" stroke-linecap="round"/><path d="M24.54158,130.59524l-2,-1.79343l2,-2.11951l2.16666,1.95647z" fill="url(#color-16)" stroke="none" stroke-width="0" stroke-linecap="round"/><path d="M22.5,192.22466v-25h4.33333v25z" fill="#6f716d" stroke="none" stroke-width="0" stroke-linecap="butt"/><path d="M455.69173,177.63238l2,1.83333l-2,2.16667l-2.16666,-2z" fill="url(#color-17)" stroke="none" stroke-width="0" stroke-linecap="round"/><path d="M31.17501,96.84592h-0.58333v-9.5h0.58333z" data-paper-data="{&quot;index&quot;:null}" fill="#141815" stroke="none" stroke-width="0" stroke-linecap="butt"/><path d="M31.17501,271.59592h-0.58333v-9.5h0.58333z" data-paper-data="{&quot;index&quot;:null}" fill="#141815" stroke="none" stroke-width="0" stroke-linecap="butt"/><path d="M449.76674,270.76409h-0.58333v-8h0.58333z" data-paper-data="{&quot;index&quot;:null}" fill="#141815" stroke="none" stroke-width="0" stroke-linecap="butt"/><path d="M448.93341,88.26408h0.58333v9h-0.58333z" data-paper-data="{&quot;index&quot;:null}" fill="#141815" stroke="none" stroke-width="0" stroke-linecap="butt"/><path d="M14.74533,67.16693l12.45852,-11h425.58297l12.45852,11v226l-10.9635,10h-428.07467l-10.96349,-11.5z" fill="none" stroke="#3a2511" stroke-width="1.5" stroke-linecap="round"/></g></g></svg>