<svg version="1.1" xmlns="http://www.w3.org/2000/svg" xmlns:xlink="http://www.w3.org/1999/xlink" width="251.5" height="94.5" viewBox="0,0,251.5,94.5"><g transform="translate(-114.25,-132.75)"><g data-paper-data="{&quot;isPaintingLayer&quot;:true}" fill-rule="nonzero" stroke-linecap="butt" stroke-linejoin="miter" stroke-miterlimit="10" stroke-dasharray="" stroke-dashoffset="0" style="mix-blend-mode: normal"><path d="M115.5,213.55c0,-23.64455 0,-55.65512 0,-68c0,-7.66833 3.77033,-11.55 11.75,-11.55c26.29097,0 178.29922,0 225.75,0c9.43242,0 11.5,4.83205 11.5,11.3c0,12.88645 0,46.52363 0,70c0,8.29615 -3.52033,10.7 -11.5,10.7c-26.29097,0 -176.54922,0 -224,0c-9.43242,0 -13.5,-0.8801 -13.5,-12.45z" fill="#142125" stroke="#32525c" stroke-width="2.5"/><text transform="translate(127,166.48749) scale(0.65104,0.65104)" font-size="40" xml:space="preserve" fill="#ffffff" fill-rule="nonzero" stroke="none" stroke-width="1" stroke-linecap="butt" stroke-linejoin="miter" stroke-miterlimit="10" stroke-dasharray="" stroke-dashoffset="0" font-family="Sans Serif" font-weight="normal" text-anchor="start" style="mix-blend-mode: normal"><tspan x="0" dy="0">Singleplayer</tspan></text><text transform="translate(126.875,196.84602) scale(0.39872,0.39872)" font-size="40" xml:space="preserve" fill="#ffffff" fill-rule="nonzero" stroke="none" stroke-width="1" stroke-linecap="butt" stroke-linejoin="miter" stroke-miterlimit="10" stroke-dasharray="" stroke-dashoffset="0" font-family="Sans Serif" font-weight="normal" text-anchor="start" style="mix-blend-mode: normal"><tspan x="0" dy="0">Play against a bot</tspan></text></g></g></svg>