<svg version="1.1" xmlns="http://www.w3.org/2000/svg" xmlns:xlink="http://www.w3.org/1999/xlink" width="50" height="55.5" viewBox="0,0,50,55.5"><g transform="translate(-215,-155)"><g data-paper-data="{&quot;isPaintingLayer&quot;:true}" fill-rule="nonzero" stroke-linecap="butt" stroke-linejoin="miter" stroke-miterlimit="10" stroke-dasharray="" stroke-dashoffset="0" style="mix-blend-mode: normal"><path d="M217.5,185.5c0,-12.42641 10.07359,-22.5 22.5,-22.5c12.42641,0 22.5,10.07359 22.5,22.5c0,12.42641 -10.07359,22.5 -22.5,22.5c-12.42641,0 -22.5,-10.07359 -22.5,-22.5z" fill="#4f3418" stroke="#6f452a" stroke-width="5"/><path d="M217.5,180c0,-12.42641 10.07359,-22.5 22.5,-22.5c12.42641,0 22.5,10.07359 22.5,22.5c0,12.42641 -10.07359,22.5 -22.5,22.5c-12.42641,0 -22.5,-10.07359 -22.5,-22.5z" fill="#442c10" stroke="#553420" stroke-width="5"/><path d="M228.60933,168.65044c-7.46394,7.54339 -5.91333,14.78831 -7.69794,15.01397c-0.76534,0.09678 -0.76835,-2.03472 -0.76835,-4.94801c0,-9.7064 9.53526,-18.57499 19.24166,-18.57499c2.47855,0 4.63117,0.33954 4.84639,0.87964c0.62761,1.57502 -7.72515,-0.35127 -15.62176,7.62939z" data-paper-data="{&quot;index&quot;:null}" fill="#2b180c" stroke="none" stroke-width="0"/></g></g></svg>