<svg version="1.1" xmlns="http://www.w3.org/2000/svg" xmlns:xlink="http://www.w3.org/1999/xlink" width="133" height="103.58946" viewBox="0,0,133,103.58946"><g transform="translate(-173.5,-153.85344)"><g data-paper-data="{&quot;isPaintingLayer&quot;:true}" fill-rule="nonzero" stroke-linecap="butt" stroke-linejoin="miter" stroke-miterlimit="10" stroke-dasharray="" stroke-dashoffset="0" style="mix-blend-mode: normal"><path d="M176,197.24661c0,-12.15463 0,-28.60986 0,-34.95582c0,-3.94195 1.93816,-5.93735 6.04016,-5.93735c13.51504,0 91.65582,0 116.04819,0c4.84879,0 5.91165,2.48395 5.91165,5.80884c0,6.62436 0,23.91576 0,35.98394c0,4.26469 -1.80965,5.5004 -5.91165,5.5004c-13.51504,0 -90.75623,0 -115.14859,0c-4.84879,0 -6.93976,-0.45242 -6.93976,-6.4z" fill="#142125" stroke="#32525c" stroke-width="5"/><text transform="translate(184.33729,186.47994) scale(0.54,0.54)" font-size="40" xml:space="preserve" fill="#ffffff" fill-rule="nonzero" stroke="none" stroke-width="1" stroke-linecap="butt" stroke-linejoin="miter" stroke-miterlimit="10" stroke-dasharray="" stroke-dashoffset="0" font-family="Sans Serif" font-weight="normal" text-anchor="start" style="mix-blend-mode: normal"><tspan x="0" dy="0">impossible</tspan></text><text transform="translate(209.9565,197.66359) scale(0.1673,0.1673)" font-size="40" xml:space="preserve" fill="#404040" fill-rule="nonzero" stroke="none" stroke-width="1" stroke-linecap="butt" stroke-linejoin="miter" stroke-miterlimit="10" stroke-dasharray="" stroke-dashoffset="0" font-family="Sans Serif" font-weight="normal" text-anchor="start" style="mix-blend-mode: normal"><tspan x="0" dy="0"> </tspan></text><text transform="translate(175.25895,220.83826) scale(0.33737,0.33737)" font-size="40" xml:space="preserve" fill="#ffffff" fill-rule="nonzero" stroke="none" stroke-width="1" stroke-linecap="butt" stroke-linejoin="miter" stroke-miterlimit="10" stroke-dasharray="" stroke-dashoffset="0" font-family="Sans Serif" font-weight="normal" text-anchor="start" style="mix-blend-mode: normal"><tspan x="0" dy="0">*Very hard bot</tspan><tspan x="0" dy="48px">*No path helper</tspan><tspan x="0" dy="48px">*Long waiting times</tspan></text><text transform="translate(206.52619,197.36942) scale(0.22019,0.22019)" font-size="40" xml:space="preserve" fill="#2d4b53" fill-rule="nonzero" stroke="none" stroke-width="1" stroke-linecap="butt" stroke-linejoin="miter" stroke-miterlimit="10" stroke-dasharray="" stroke-dashoffset="0" font-family="Sans Serif" font-weight="normal" text-anchor="start" style="mix-blend-mode: normal"><tspan x="0" dy="0">hehe, good luck</tspan></text></g></g></svg>